<svg viewBox="0 0 230 40" fill="none" xmlns="http://www.w3.org/2000/svg">
<path d="M23.0032 25.6452L25.4794 31.3872L22.0127 39.5619H0L14.6005 6.173L17.3006 0L25.5146 19.6235L23.0032 25.6452Z" fill="#48B14A"/>
<path d="M50.858 39.5622H29.0091L25.4801 31.3875L23.0039 25.6455L25.5154 19.6238L33.6735 0.0708008L50.858 39.5622Z" fill="#5ACB5D"/>
<path d="M56.4398 9.6255C57.0324 9.07638 57.7204 8.80078 58.4995 8.80078C59.3387 8.80078 60.0391 9.07638 60.6027 9.6255C61.1664 10.1746 61.4482 10.8543 61.4482 11.6645C61.4482 12.4457 61.1664 13.1171 60.6027 13.6828C60.0391 14.2464 59.3366 14.5283 58.4995 14.5283C57.7183 14.5283 57.0324 14.2464 56.4398 13.6828C55.8471 13.1192 55.5508 12.4457 55.5508 11.6645C55.5508 10.8543 55.8471 10.1746 56.4398 9.6255ZM60.7996 19.603V39.5601H56.2014V19.603H60.7996V19.603Z" fill="#5ACB5D"/>
<path d="M79.1952 24.0732C78.5881 23.321 77.6473 22.9459 76.375 22.9459C75.5068 22.9459 74.7401 23.1262 74.0749 23.4888C73.4097 23.8515 72.8896 24.3716 72.5125 25.0512C72.1353 25.7309 71.9488 26.5204 71.9488 27.4156V39.5647H67.2637V19.6076H71.9488V22.689C72.585 21.5037 73.4035 20.6209 74.4002 20.0428C75.399 19.4647 76.5905 19.1746 77.9789 19.1746C80.2355 19.1746 81.9554 19.8625 83.1427 21.2343C84.328 22.6081 84.9206 24.4959 84.9206 26.8955V39.5647H80.1049V27.4156C80.1049 25.9381 79.8024 24.8254 79.1952 24.0732Z" fill="#5ACB5D"/>
<path d="M99.4592 19.6031V23.7247H88.1348V19.6031H99.4592ZM96.1168 12.6614V39.5602H91.4751V12.6614H96.1168Z" fill="#5ACB5D"/>
<path d="M119.624 39.5627H114.332L118.497 7.67407L130.949 28.2818L143.444 7.67407L147.609 39.5627H142.317L140.191 21.081L130.949 36.7446L121.707 21.081L119.624 39.5627Z" fill="#5ACB5D"/>
<path d="M155.534 38.6944C153.986 37.8262 152.792 36.6119 151.955 35.0495C151.116 33.487 150.697 31.6656 150.697 29.5831C150.697 27.4715 151.124 25.6356 151.978 24.0732C152.83 22.5108 154.038 21.3047 155.6 20.451C157.162 19.5973 158.998 19.1704 161.11 19.1704C163.221 19.1704 165.016 19.5766 166.489 20.3847C167.965 21.1949 169.098 22.3595 169.894 23.8784C170.69 25.3973 171.087 27.227 171.087 29.3676C171.087 29.5997 171.079 29.8442 171.065 30.1053C171.05 30.3664 171.027 30.5549 171 30.6689H153.472V27.4591H167.009L165.578 29.4546C165.665 29.2805 165.758 29.0422 165.859 28.7397C165.961 28.4351 166.011 28.1823 166.011 27.9813C166.011 26.912 165.799 25.9858 165.381 25.2046C164.962 24.4234 164.382 23.8162 163.644 23.3831C162.906 22.9501 162.047 22.7325 161.062 22.7325C159.875 22.7325 158.864 22.9936 158.024 23.5137C157.185 24.0338 156.549 24.786 156.116 25.7703C155.683 26.7546 155.451 27.9688 155.422 29.4152C155.422 30.8616 155.639 32.0842 156.072 33.0809C156.506 34.0797 157.15 34.8381 158.004 35.3582C158.857 35.8783 159.891 36.1394 161.106 36.1394C162.378 36.1394 163.493 35.8783 164.446 35.3582C165.401 34.8381 166.195 34.0424 166.833 32.9711L170.868 34.6205C169.828 36.415 168.481 37.7599 166.833 38.655C165.184 39.5523 163.203 39.9999 160.888 39.9999C158.868 39.9957 157.082 39.5626 155.534 38.6944Z" fill="#5ACB5D"/>
<path d="M175.38 23.9652C176.277 22.4173 177.469 21.232 178.959 20.4073C180.449 19.5826 182.046 19.1702 183.754 19.1702C185.43 19.1702 186.899 19.5888 188.157 20.428C189.415 21.2672 190.414 22.4608 191.151 24.0066C191.889 25.5545 192.258 27.4133 192.258 29.5828C192.258 31.7234 191.889 33.5738 191.151 35.1363C190.414 36.6987 189.415 37.8985 188.157 38.7377C186.899 39.5769 185.43 39.9955 183.754 39.9955C182.046 39.9955 180.449 39.5831 178.959 38.7584C177.469 37.9337 176.275 36.7401 175.38 35.1798C174.483 33.6174 174.035 31.7524 174.035 29.5828C174.035 27.3843 174.485 25.5131 175.38 23.9652ZM179.719 33.0102C180.268 33.9655 181 34.6887 181.911 35.1798C182.823 35.673 183.814 35.9175 184.883 35.9175C185.78 35.9175 186.669 35.673 187.552 35.1798C188.435 34.6887 189.158 33.9717 189.721 33.033C190.285 32.0943 190.567 30.9443 190.567 29.5849C190.567 28.2256 190.285 27.0755 189.721 26.1347C189.158 25.1961 188.435 24.4791 187.552 23.988C186.669 23.4969 185.78 23.2503 184.883 23.2503C183.814 23.2503 182.821 23.4969 181.911 23.988C181 24.4812 180.268 25.2023 179.719 26.1576C179.17 27.1128 178.894 28.2546 178.894 29.5849C178.894 30.9132 179.17 32.055 179.719 33.0102ZM195.296 5.71973V39.5604H190.567V5.71973H195.296Z" fill="#5ACB5D"/>
<path d="M201.826 9.6255C202.419 9.07638 203.107 8.80078 203.886 8.80078C204.725 8.80078 205.426 9.07638 205.989 9.6255C206.553 10.1746 206.835 10.8543 206.835 11.6645C206.835 12.4457 206.553 13.1171 205.989 13.6828C205.426 14.2464 204.723 14.5283 203.886 14.5283C203.105 14.5283 202.419 14.2464 201.826 13.6828C201.234 13.1192 200.938 12.4457 200.938 11.6645C200.935 10.8543 201.232 10.1746 201.826 9.6255ZM206.186 19.603V39.5601H201.588V19.603H206.186V19.603Z" fill="#5ACB5D"/>
<path d="M216.08 35.0723C216.4 35.5489 216.839 35.9032 217.405 36.1353C217.968 36.3674 218.613 36.4834 219.336 36.4834C220.262 36.4834 221.107 36.2949 221.874 35.9198C222.641 35.5448 223.263 34.9873 223.739 34.2497C224.216 33.512 224.454 32.652 224.454 31.6677L225.148 34.2704C225.148 35.5427 224.779 36.6057 224.042 37.4594C223.304 38.3132 222.378 38.9493 221.265 39.3679C220.15 39.7865 219.015 39.9979 217.858 39.9979C216.615 39.9979 215.457 39.7513 214.387 39.2602C213.316 38.7691 212.462 38.0459 211.828 37.0906C211.192 36.1353 210.873 34.9791 210.873 33.6197C210.873 31.6822 211.553 30.1426 212.912 28.9988C214.271 27.857 216.194 27.2851 218.683 27.2851C220.013 27.2851 221.163 27.4301 222.133 27.7182C223.103 28.0083 223.905 28.3481 224.541 28.7377C225.177 29.1272 225.627 29.4837 225.886 29.8007V32.1878C224.989 31.5517 224.035 31.0896 223.022 30.7995C222.009 30.5115 220.94 30.3664 219.812 30.3664C218.828 30.3664 218.034 30.4907 217.425 30.7352C216.818 30.9818 216.362 31.3217 216.06 31.7548C215.755 32.1878 215.604 32.7245 215.604 33.3607C215.602 34.0238 215.761 34.5936 216.08 35.0723ZM212.218 21.5141C213.115 20.965 214.28 20.4303 215.712 19.9082C217.143 19.386 218.785 19.127 220.635 19.127C222.284 19.127 223.737 19.3735 224.995 19.8646C226.253 20.3557 227.243 21.0582 227.966 21.9679C228.69 22.8796 229.052 24.0007 229.052 25.331V39.5627H224.454V26.2428C224.454 25.6066 224.346 25.0865 224.129 24.6804C223.911 24.2763 223.615 23.9427 223.24 23.6816C222.865 23.4205 222.415 23.234 221.895 23.1179C221.375 23.0019 220.809 22.9439 220.202 22.9439C219.276 22.9439 218.401 23.0516 217.577 23.2692C216.752 23.4868 216.043 23.7458 215.45 24.0504C214.858 24.355 214.416 24.6078 214.126 24.8088L212.218 21.5141Z" fill="#5ACB5D"/>
</svg>
